<svg xmlns="http://www.w3.org/2000/svg" width="512" height="512" viewBox="0 0 512 512">
  <defs>
    <linearGradient id="bg" x1="90" y1="60" x2="430" y2="460" gradientUnits="userSpaceOnUse">
      <stop stop-color="#4E6470"/>
      <stop offset="1" stop-color="#29383F"/>
    </linearGradient>
    <filter id="shadow" x="-20%" y="-20%" width="140%" height="150%">
      <feDropShadow dx="0" dy="14" stdDeviation="18" flood-color="#152026" flood-opacity=".32"/>
    </filter>
  </defs>
  <rect x="24" y="24" width="464" height="464" rx="112" fill="url(#bg)"/>
  <g filter="url(#shadow)">
    <path d="M160 190c9-55 42-91 96-91s87 36 96 91l14 79H146l14-79Z" fill="#E5E1D8"/>
    <path d="M137 253c41 18 197 18 238 0 29-13 57 10 38 36-24 34-291 34-314 0-19-27 9-49 38-36Z" fill="#C8C0B2"/>
    <path d="M158 206h196l9 51c-59 19-155 19-214 0l9-51Z" fill="#C6765B"/>
  </g>
  <g fill="none" stroke="#E5E1D8" stroke-width="24" stroke-linecap="round" stroke-linejoin="round">
    <path d="M145 354h87l-28-29m28 29-28 29"/>
    <path d="M367 406h-87l28 29m-28-29 28-29"/>
  </g>
</svg>
